<svg id="Group_6925" data-name="Group 6925" xmlns="http://www.w3.org/2000/svg" xmlns:xlink="http://www.w3.org/1999/xlink" width="99.786" height="135.57" viewBox="0 0 99.786 135.57">
  <defs>
    <clipPath id="clip-path">
      <rect id="Rectangle_1711" data-name="Rectangle 1711" width="99.786" height="135.57" fill="none"/>
    </clipPath>
  </defs>
  <g id="Group_6924" data-name="Group 6924" clip-path="url(#clip-path)">
    <path id="Path_7146" data-name="Path 7146" d="M40.032,94.813c.641-.392.89-1.709.142-3.311-.309-.688-.949-.926-1.329.142A4.95,4.95,0,0,0,38.6,92.9c-.214,1.756.807,2.278,1.436,1.911" transform="translate(13.384 16.972)" fill="#fff"/>
    <path id="Path_7147" data-name="Path 7147" d="M44.487,89.682c.641-.392.878-1.709.142-3.311-.309-.665-.949-.926-1.329.142a4.95,4.95,0,0,0-.249,1.258c-.214,1.756.807,2.278,1.436,1.911" transform="translate(3.649 16.016)" fill="#fff"/>
    <path id="Path_7148" data-name="Path 7148" d="M44.576,96.543c.629-.38.866-1.7.142-3.3-.32-.688-.961-.937-1.341.119a5.294,5.294,0,0,0-.249,1.282c-.214,1.756.807,2.278,1.448,1.9" transform="translate(3.477 17.296)" fill="#fff"/>
    <path id="Path_7149" data-name="Path 7149" d="M48.107,101.523c.641-.38.878-1.709.142-3.3-.32-.688-.961-.937-1.329.119a5.179,5.179,0,0,0-.249,1.27c-.214,1.768.807,2.29,1.436,1.911" transform="translate(-4.267 18.226)" fill="#fff"/>
    <path id="Path_7150" data-name="Path 7150" d="M48.981,94.762c.641-.392.878-1.709.131-3.311-.309-.665-.949-.926-1.329.142a5.644,5.644,0,0,0-.237,1.258c-.225,1.756.807,2.278,1.436,1.911" transform="translate(-6.174 16.964)" fill="#fff"/>
    <path id="Path_7151" data-name="Path 7151" d="M51.047,88.622c.641-.392.89-1.709.131-3.311-.309-.665-.949-.926-1.329.142a5.644,5.644,0,0,0-.237,1.258c-.225,1.756.807,2.29,1.436,1.911" transform="translate(-10.696 15.818)" fill="#fff"/>
    <path id="Path_7152" data-name="Path 7152" d="M51.575,99.644c.641-.392.89-1.709.142-3.311-.32-.688-.961-.926-1.341.131a5.939,5.939,0,0,0-.237,1.258c-.225,1.768.807,2.29,1.436,1.922" transform="translate(-11.853 17.874)" fill="#fff"/>
    <path id="Path_7153" data-name="Path 7153" d="M54.232,93.3c.629-.392.878-1.709.131-3.311-.309-.676-.961-.926-1.329.131a5.729,5.729,0,0,0-.261,1.258c-.2,1.768.819,2.29,1.46,1.922" transform="translate(-17.631 16.691)" fill="#fff"/>
    <path id="Path_7154" data-name="Path 7154" d="M57.331,87.8c.653-.392.89-1.709.142-3.311-.32-.665-.961-.926-1.329.142a4.872,4.872,0,0,0-.261,1.258c-.214,1.756.819,2.29,1.448,1.911" transform="translate(-24.432 15.665)" fill="#fff"/>
    <path id="Path_7155" data-name="Path 7155" d="M60.081,92.355c.558-.344.771-1.5.131-2.9-.273-.581-.831-.807-1.163.119a5.451,5.451,0,0,0-.2,1.1c-.178,1.531.7,1.994,1.234,1.673" transform="translate(-30.624 16.606)" fill="#fff"/>
    <path id="Path_7156" data-name="Path 7156" d="M3.845,96.556a46.41,46.41,0,0,0,87.649-30.4c-.285-.961-.617-1.911-.985-2.86A46.317,46.317,0,0,0,77.361,44.65a17.407,17.407,0,0,0,1.388,8.034c3.216,8.271,6.883,16.376,9.054,25.11a107.861,107.861,0,0,1,2.385,16.993,43.651,43.651,0,0,1-3.074,6.942A45.073,45.073,0,0,1,78.3,113.122c.095.095-.036.249-.427.439-.024.012-.059.024-.083.036a44.925,44.925,0,0,1-13.908,8.651c-1.032.415-2.089.783-3.168,1.115-.012.012-.012.012-.024.012a45.07,45.07,0,0,1-11.321,2.006c-.843.047-1.673.059-2.516.047a43.931,43.931,0,0,1-9.114-.985c-.759-.154-1.519-.344-2.267-.558a40.1,40.1,0,0,1-4.652-1.507c-.8-.3-1.578-.629-2.35-.985a44.627,44.627,0,0,1-8.663-5.126c-.024-.249-.059-.487-.083-.724s-.059-.451-.083-.653c-.059-.415-.107-.783-.154-1.1-1.246-7.9-3.05-15.937-3.56-24.968-.641-.131-1.258-.3-1.875-.487a22.274,22.274,0,0,1-9.956-5.755,24.708,24.708,0,0,1-2.421-3.038c-.32-.439-.605-.9-.89-1.365A46.14,46.14,0,0,0,3.845,96.556" transform="translate(5.296 8.335)" fill="#fff"/>
    <path id="Path_7157" data-name="Path 7157" d="M40.032,94.813c.641-.392.89-1.709.142-3.311-.309-.688-.949-.926-1.329.142A4.95,4.95,0,0,0,38.6,92.9c-.214,1.756.807,2.278,1.436,1.911" transform="translate(13.384 16.972)" fill="#040504"/>
    <path id="Path_7158" data-name="Path 7158" d="M44.487,89.682c.641-.392.878-1.709.142-3.311-.309-.665-.949-.926-1.329.142a4.95,4.95,0,0,0-.249,1.258c-.214,1.756.807,2.278,1.436,1.911" transform="translate(3.649 16.016)" fill="#040504"/>
    <path id="Path_7159" data-name="Path 7159" d="M44.576,96.543c.629-.38.866-1.7.142-3.3-.32-.688-.961-.937-1.341.119a5.294,5.294,0,0,0-.249,1.282c-.214,1.756.807,2.278,1.448,1.9" transform="translate(3.477 17.296)" fill="#040504"/>
    <path id="Path_7160" data-name="Path 7160" d="M48.107,101.523c.641-.38.878-1.709.142-3.3-.32-.688-.961-.937-1.329.119a5.179,5.179,0,0,0-.249,1.27c-.214,1.768.807,2.29,1.436,1.911" transform="translate(-4.267 18.226)" fill="#040504"/>
    <path id="Path_7161" data-name="Path 7161" d="M48.981,94.762c.641-.392.878-1.709.131-3.311-.309-.665-.949-.926-1.329.142a5.644,5.644,0,0,0-.237,1.258c-.225,1.756.807,2.278,1.436,1.911" transform="translate(-6.174 16.964)" fill="#040504"/>
    <path id="Path_7162" data-name="Path 7162" d="M51.047,88.622c.641-.392.89-1.709.131-3.311-.309-.665-.949-.926-1.329.142a5.644,5.644,0,0,0-.237,1.258c-.225,1.756.807,2.29,1.436,1.911" transform="translate(-10.696 15.818)" fill="#040504"/>
    <path id="Path_7163" data-name="Path 7163" d="M51.575,99.644c.641-.392.89-1.709.142-3.311-.32-.688-.961-.926-1.341.131a5.939,5.939,0,0,0-.237,1.258c-.225,1.768.807,2.29,1.436,1.922" transform="translate(-11.853 17.874)" fill="#040504"/>
    <path id="Path_7164" data-name="Path 7164" d="M54.232,93.3c.629-.392.878-1.709.131-3.311-.309-.676-.961-.926-1.329.131a5.729,5.729,0,0,0-.261,1.258c-.2,1.768.819,2.29,1.46,1.922" transform="translate(-17.631 16.691)" fill="#040504"/>
    <path id="Path_7165" data-name="Path 7165" d="M57.331,87.8c.653-.392.89-1.709.142-3.311-.32-.665-.961-.926-1.329.142a4.872,4.872,0,0,0-.261,1.258c-.214,1.756.819,2.29,1.448,1.911" transform="translate(-24.432 15.665)" fill="#040504"/>
    <path id="Path_7166" data-name="Path 7166" d="M60.081,92.355c.558-.344.771-1.5.131-2.9-.273-.581-.831-.807-1.163.119a5.451,5.451,0,0,0-.2,1.1c-.178,1.531.7,1.994,1.234,1.673" transform="translate(-30.624 16.606)" fill="#040504"/>
    <path id="Path_7167" data-name="Path 7167" d="M3.845,96.556a46.41,46.41,0,0,0,87.649-30.4c-.285-.961-.617-1.911-.985-2.86A46.317,46.317,0,0,0,77.361,44.65a17.407,17.407,0,0,0,1.388,8.034c3.216,8.271,6.883,16.376,9.054,25.11a107.861,107.861,0,0,1,2.385,16.993,43.651,43.651,0,0,1-3.074,6.942A45.073,45.073,0,0,1,78.3,113.122c.095.095-.036.249-.427.439-.024.012-.059.024-.083.036a44.925,44.925,0,0,1-13.908,8.651c-1.032.415-2.089.783-3.168,1.115-.012.012-.012.012-.024.012a45.07,45.07,0,0,1-11.321,2.006c-.843.047-1.673.059-2.516.047a43.931,43.931,0,0,1-9.114-.985c-.759-.154-1.519-.344-2.267-.558a40.1,40.1,0,0,1-4.652-1.507c-.8-.3-1.578-.629-2.35-.985a44.627,44.627,0,0,1-8.663-5.126c-.024-.249-.059-.487-.083-.724s-.059-.451-.083-.653c-.059-.415-.107-.783-.154-1.1-1.246-7.9-3.05-15.937-3.56-24.968-.641-.131-1.258-.3-1.875-.487a22.274,22.274,0,0,1-9.956-5.755,24.708,24.708,0,0,1-2.421-3.038c-.32-.439-.605-.9-.89-1.365A46.14,46.14,0,0,0,3.845,96.556" transform="translate(5.296 8.335)" fill="#040504"/>
    <path id="Path_7168" data-name="Path 7168" d="M13.62,102.825c.024-.012.059-.024.083-.036.392-.19.522-.344.427-.439a4.747,4.747,0,0,1-.51.475" transform="translate(69.464 19.107)" fill="#040504"/>
    <path id="Path_7169" data-name="Path 7169" d="M68.445,76.13a24.482,24.482,0,0,0,1.709,2.824,43.274,43.274,0,0,1,.356-5.4A45.45,45.45,0,0,1,81.748,48.979l-1.353-1.2A47,47,0,0,0,69.2,70.28v.012a46.233,46.233,0,0,0-.759,5.838" transform="translate(-63.184 8.92)" fill="#040504"/>
    <path id="Path_7170" data-name="Path 7170" d="M30.354,37.709A47.39,47.39,0,0,0,2.127,95.928l1.722-.534A45.513,45.513,0,1,1,81.227,112.24l1.346,1.2A47.322,47.322,0,0,0,30.354,37.709" transform="translate(5.157 6.453)" fill="#040504"/>
    <path id="Path_7171" data-name="Path 7171" d="M63.193,66.383a13.8,13.8,0,0,0,5.071,2.752,18.435,18.435,0,0,0,2.484.584c5.669.9,10.68-1.152,6.3-5.46-2.647-2.6-7.525-3.605-10.4-3.037-3.74.748-5.041,3.755-3.456,5.161" transform="translate(-53.132 11.4)" fill="#040504"/>
    <path id="Path_7172" data-name="Path 7172" d="M69.409,79.242a9.673,9.673,0,0,0,.329,1.959c.6,1.451,1.616,2.14,1.915.659,0-.015.014-.553.045-1.422v-.014c.044-2.678.179-8.437.239-11.593.03-1.317.045-2.185.045-2.185A1.225,1.225,0,0,0,69.6,67.1c-.061.344-.1.733-.15,1.152a67.44,67.44,0,0,0-.045,10.995" transform="translate(-54.321 12.289)" fill="#040504"/>
    <path id="Path_7173" data-name="Path 7173" d="M53.5,75.231a1.417,1.417,0,0,0,1.75.928,1.576,1.576,0,0,0,.628-2.543A1.53,1.53,0,0,0,53.5,75.231" transform="translate(-19.934 13.683)" fill="#040504"/>
    <path id="Path_7174" data-name="Path 7174" d="M48.809,107.059c0-.011-.009-.017-.012-.026-.031-.211-.064-.381.012.026" transform="translate(-6.89 19.94)" fill="#040504"/>
    <path id="Path_7175" data-name="Path 7175" d="M48.1,101.518c.643-.374.883-1.705.15-3.291-.329-.688-.972-.942-1.331.12a4.96,4.96,0,0,0-.254,1.271c-.21,1.766.808,2.289,1.436,1.9" transform="translate(-4.265 18.226)" fill="#040504"/>
    <path id="Path_7176" data-name="Path 7176" d="M51.576,99.641c.643-.389.883-1.705.134-3.306-.313-.688-.956-.927-1.33.135a5.823,5.823,0,0,0-.24,1.257c-.224,1.765.808,2.288,1.436,1.914" transform="translate(-11.852 17.874)" fill="#040504"/>
    <path id="Path_7177" data-name="Path 7177" d="M55.334,97.562c.179.987.928,1.241,1.422.942a.793.793,0,0,0,.179-.15c.508-.494.628-1.705-.045-3.141-.314-.688-.958-.928-1.331.12a5.985,5.985,0,0,0-.24,1.271,2.9,2.9,0,0,0,.015.958" transform="translate(-23.178 17.664)" fill="#040504"/>
    <path id="Path_7178" data-name="Path 7178" d="M7.7,84.863q.392.748.819,1.46c.285.463.57.926.89,1.365a24.708,24.708,0,0,0,2.421,3.038,22.274,22.274,0,0,0,9.956,5.755c.617.19,1.234.356,1.875.487.51,9.031,2.314,17.065,3.56,24.968.047.32.095.688.154,1.1.024.2.059.427.083.653s.059.475.083.724a44.627,44.627,0,0,0,8.663,5.126c.771.356,1.555.688,2.35.985a40.1,40.1,0,0,0,4.652,1.507c.748.214,1.507.4,2.267.558a43.931,43.931,0,0,0,9.114.985c.843.012,1.673,0,2.516-.047a45.07,45.07,0,0,0,11.321-2.006c.012,0,.012,0,.024-.012,1.08-.332,2.136-.7,3.168-1.115a44.925,44.925,0,0,0,13.908-8.651c.024-.012.059-.024.083-.036.392-.19.522-.344.427-.439a45.073,45.073,0,0,0,8.817-11.392,43.651,43.651,0,0,0,3.074-6.942,107.862,107.862,0,0,0-2.385-16.993C93.366,77.209,89.7,69.1,86.483,60.833A17.407,17.407,0,0,1,85.095,52.8a33.232,33.232,0,0,1,.854-5.138C88.37,37.135,92.322,23.7,92.9,12.013c.463-9.624-.38-9.493-9.007-6.206a105.674,105.674,0,0,0-12.128,5.85c-3.762,2.065-8.295,4.225-11.416,7.464A34.1,34.1,0,0,0,42.1,16.712c-1.4-3.5-7.12-10.016-11.736-13.065-5.1-3.382-7.808-3.608-8.77-.19-1.353,4.759.012,16.934,2.6,21.443C16.5,31.011,10.452,39.84,6.8,49.263c-4.082,10.561-4.676,25.015.9,35.6" transform="translate(-2.439 0.187)" fill="#fc9b3a"/>
    <path id="Path_7179" data-name="Path 7179" d="M7.7,84.863q.392.748.819,1.46c.285.463.57.926.89,1.365a24.708,24.708,0,0,0,2.421,3.038,22.274,22.274,0,0,0,9.956,5.755c.617.19,1.234.356,1.875.487.51,9.031,2.314,17.065,3.56,24.968.047.32.095.688.154,1.1.024.2.059.427.083.653s.059.475.083.724a44.627,44.627,0,0,0,8.663,5.126c.771.356,1.555.688,2.35.985a40.1,40.1,0,0,0,4.652,1.507c.748.214,1.507.4,2.267.558a43.931,43.931,0,0,0,9.114.985c.843.012,1.673,0,2.516-.047a45.07,45.07,0,0,0,11.321-2.006c.012,0,.012,0,.024-.012,1.08-.332,2.136-.7,3.168-1.115a44.925,44.925,0,0,0,13.908-8.651c.024-.012.059-.024.083-.036.392-.19.522-.344.427-.439a45.073,45.073,0,0,0,8.817-11.392,43.651,43.651,0,0,0,3.074-6.942,107.862,107.862,0,0,0-2.385-16.993C93.366,77.209,89.7,69.1,86.483,60.833A17.407,17.407,0,0,1,85.095,52.8a33.232,33.232,0,0,1,.854-5.138C88.37,37.135,92.322,23.7,92.9,12.013c.463-9.624-.38-9.493-9.007-6.206a105.674,105.674,0,0,0-12.128,5.85c-3.762,2.065-8.295,4.225-11.416,7.464A34.1,34.1,0,0,0,42.1,16.712c-1.4-3.5-7.12-10.016-11.736-13.065-5.1-3.382-7.808-3.608-8.77-.19-1.353,4.759.012,16.934,2.6,21.443C16.5,31.011,10.452,39.84,6.8,49.263,2.715,59.824,2.122,74.278,7.7,84.863Z" transform="translate(-2.439 0.187)" fill="none" stroke="#1a1818" stroke-linecap="round" stroke-linejoin="round" stroke-width="2"/>
    <path id="Path_7180" data-name="Path 7180" d="M15.77,111.835c.629.558,1.27,1.1,1.922,1.626.807.653,1.638,1.282,2.48,1.863a47.319,47.319,0,0,0,8.52,4.747c.783.332,1.578.653,2.385.949a46.62,46.62,0,0,0,4.7,1.436c.736.19,1.471.356,2.207.51a47.973,47.973,0,0,0,9.031.926c.854.012,1.7-.012,2.54-.047a47.41,47.41,0,0,0,10.478-1.685c.843-.237,1.685-.487,2.516-.783.581-.19,1.163-.392,1.733-.617A47.41,47.41,0,0,0,92.5,62.54l-.866.273-.854.261a45.221,45.221,0,0,1-.451,28.374,43.651,43.651,0,0,1-3.074,6.942,45.073,45.073,0,0,1-8.817,11.392c.095.095-.036.249-.427.439-.024.012-.059.024-.083.036a44.925,44.925,0,0,1-13.908,8.651c-1.032.415-2.089.783-3.168,1.115-.012.012-.012.012-.024.012a45.07,45.07,0,0,1-11.321,2.006c-.843.047-1.673.059-2.516.047a43.931,43.931,0,0,1-9.114-.985c-.759-.154-1.519-.344-2.267-.558a40.1,40.1,0,0,1-4.652-1.507c-.8-.3-1.578-.629-2.35-.985a44.626,44.626,0,0,1-8.663-5.126c-.89-.653-1.744-1.353-2.587-2.089A45.452,45.452,0,0,1,1.815,76.2c-.32-.439-.605-.9-.89-1.365s-.558-.961-.819-1.46a47.256,47.256,0,0,0,15.664,38.46" transform="translate(5.155 11.675)" fill="#040504"/>
    <path id="Path_7181" data-name="Path 7181" d="M28.241,45.734v-.015l-.015.015Z" transform="translate(38.051 8.535)" fill="#040504"/>
    <path id="Path_7182" data-name="Path 7182" d="M23.951,14.328C10.38,52.9-.334,71.841,58.056,58.344" transform="translate(25.988 2.675)" fill="none" stroke="#1a1818" stroke-linecap="round" stroke-linejoin="round" stroke-width="2"/>
    <path id="Path_7183" data-name="Path 7183" d="M52.939,39.191c.776-4.924,4.269-8.57,7.527-8.544,2.884.021,5.392,3.146,5.95,8.431a5.626,5.626,0,0,1-1.652-1.169c-.608-.927-.9-2.061-1.455-3.031-1.62-2.816-3.536-3.145-5.76-.853a40.711,40.711,0,0,0-2.56,3.738,9.637,9.637,0,0,1-2.051,1.428" transform="translate(-29.452 5.721)" fill="#040504"/>
    <path id="Path_7184" data-name="Path 7184" d="M42,41.252c-.949-1.972-1.539-3.482-2.364-4.851-1.5-2.493-3.481-2.791-5.515-.72A39.34,39.34,0,0,0,31.391,39.6c-.313.414-.948.584-1.442.86a4.753,4.753,0,0,1-.279-1.627,6.284,6.284,0,0,1,.826-1.737c1.69-3.06,4.808-5.1,7.074-4.646,2.365.477,5.23,4.067,5.507,7.1.043.462-.608.992-1.082,1.7" transform="translate(21.497 6.046)" fill="#040504"/>
    <path id="Path_7185" data-name="Path 7185" d="M63.2,68.813a13.938,13.938,0,0,0,5.067,2.753,66.709,66.709,0,0,0-.047,10.989,16.084,16.084,0,0,0,2.29,1.187c.047-2.682.178-8.437.237-11.594,5.672.89,10.68-1.151,6.3-5.459-2.646-2.611-7.524-3.608-10.4-3.038-3.738.748-5.043,3.75-3.453,5.162" transform="translate(-53.131 11.854)" fill="#1a1818"/>
    <path id="Path_7186" data-name="Path 7186" d="M40.032,94.813c.641-.392.89-1.709.142-3.311-.309-.688-.949-.926-1.329.142A4.95,4.95,0,0,0,38.6,92.9c-.214,1.756.807,2.278,1.436,1.911" transform="translate(13.384 16.972)" fill="#1a1818"/>
    <path id="Path_7187" data-name="Path 7187" d="M44.629,86.371c-.309-.665-.949-.926-1.329.142a4.95,4.95,0,0,0-.249,1.258c-.214,1.756.807,2.278,1.436,1.911.641-.392.878-1.709.142-3.311" transform="translate(3.649 16.016)" fill="#1a1818"/>
    <path id="Path_7188" data-name="Path 7188" d="M44.576,96.543c.629-.38.866-1.7.142-3.3-.32-.688-.961-.937-1.341.119a5.294,5.294,0,0,0-.249,1.282c-.214,1.756.807,2.278,1.448,1.9" transform="translate(3.477 17.296)" fill="#1a1818"/>
    <path id="Path_7189" data-name="Path 7189" d="M48.107,101.523c.641-.38.878-1.709.142-3.3-.32-.688-.961-.937-1.329.119a5.179,5.179,0,0,0-.249,1.27c-.214,1.768.807,2.29,1.436,1.911" transform="translate(-4.267 18.226)" fill="#1a1818"/>
    <path id="Path_7190" data-name="Path 7190" d="M48.981,94.762c.641-.392.878-1.709.131-3.311-.309-.665-.949-.926-1.329.142a5.644,5.644,0,0,0-.237,1.258c-.225,1.756.807,2.278,1.436,1.911" transform="translate(-6.174 16.964)" fill="#1a1818"/>
    <path id="Path_7191" data-name="Path 7191" d="M51.178,85.311c-.309-.665-.949-.926-1.329.142a5.644,5.644,0,0,0-.237,1.258c-.225,1.756.807,2.29,1.436,1.911s.89-1.709.131-3.311" transform="translate(-10.696 15.818)" fill="#1a1818"/>
    <path id="Path_7192" data-name="Path 7192" d="M51.575,99.644c.641-.392.89-1.709.142-3.311-.32-.688-.961-.926-1.341.131a5.939,5.939,0,0,0-.237,1.258c-.225,1.768.807,2.29,1.436,1.922" transform="translate(-11.853 17.874)" fill="#1a1818"/>
    <path id="Path_7193" data-name="Path 7193" d="M54.232,93.3c.629-.392.878-1.709.131-3.311-.309-.676-.961-.926-1.329.131a5.729,5.729,0,0,0-.261,1.258c-.2,1.768.819,2.29,1.46,1.922" transform="translate(-17.631 16.691)" fill="#1a1818"/>
    <path id="Path_7194" data-name="Path 7194" d="M57.331,87.8c.653-.392.89-1.709.142-3.311-.32-.665-.961-.926-1.329.142a4.872,4.872,0,0,0-.261,1.258c-.214,1.756.819,2.29,1.448,1.911" transform="translate(-24.432 15.665)" fill="#1a1818"/>
    <path id="Path_7195" data-name="Path 7195" d="M60.081,92.355c.558-.344.771-1.5.131-2.9-.273-.581-.831-.807-1.163.119a5.451,5.451,0,0,0-.2,1.1c-.178,1.531.7,1.994,1.234,1.673" transform="translate(-30.624 16.606)" fill="#1a1818"/>
    <path id="Path_7196" data-name="Path 7196" d="M73.691,58.365C68.983,82.388,53.851,89.7,26.1,86.258" transform="translate(-4.882 10.896)" fill="none" stroke="#1a1818" stroke-linecap="round" stroke-linejoin="round" stroke-width="2"/>
  </g>
</svg>
