<svg id="Layer_1" data-name="Layer 1" xmlns="http://www.w3.org/2000/svg" viewBox="0 0 383.13 138.14"><defs><style>.cls-1{fill:#f2f2f3;}.cls-2{fill:#413e36;}</style></defs><path class="cls-1" d="M102.28,88.52a41.32,41.32,0,0,1-5.78,4.06,15.28,15.28,0,0,1-7,1.58q-7.44,0-10.89-5.23-2.88-4.46-2.88-12.14,0-4-.39-10.91T75,57c0-3-1-4.71-3-5.23s-3-1.59-3-3.23q0-1.66,7.72-5.34t9.94-3.67a3.05,3.05,0,0,1,3,2,10.59,10.59,0,0,1,.56,3.9V64.56a65.06,65.06,0,0,0,.67,11.58q1.68,7.58,7,7.57a7.84,7.84,0,0,0,6.37-3.24l.44-.67c1.21-1,2.11.77,2.11,2.33a3.11,3.11,0,0,1-.39,1.5,14.5,14.5,0,0,1-.94,1.5A27.26,27.26,0,0,1,93.7,93.79M108.17,73.3V58.64q0-4.81-4.22-6.38a2.63,2.63,0,0,1-2-2.46q0-2.13,5.33-4.59c2.45-1,4.89-2,7.34-3,1.33-.74,2.37-1.3,3.11-1.68a7.79,7.79,0,0,1,3.33-1A2.43,2.43,0,0,1,123.62,41a6.93,6.93,0,0,1,.22,2.12V81.56c0,2,1.4,3.86,4.22,5.58,1.41.89,2.11,1.86,2.11,2.9A2.32,2.32,0,0,1,129,91.88a3.86,3.86,0,0,1-2.27.83H114q-5.11,0-5.44-2.38Z"/><path class="cls-1" d="M143.92,59.16c-.07-.59-.15-1.22-.22-1.89a6.43,6.43,0,0,0-3.39-2.5c-1.74-.7-2.61-1.61-2.61-2.72a3,3,0,0,1,.66-1.78,6.73,6.73,0,0,1,1.43-1.44q4-2.67,8.36-5.22,6.71-3.88,8.25-3.89a2.41,2.41,0,0,1,2.36,1.16,6.71,6.71,0,0,1,.61,3.06v3.67c0,1.48.22,2.4.67,2.77a38.69,38.69,0,0,1,7.81-7.44,17.24,17.24,0,0,1,10.26-3.56A16.92,16.92,0,0,1,183,40a2.66,2.66,0,0,1,2,2.83,4.17,4.17,0,0,1-.39,1.39c-.26.63-.43,1-.5,1.16q-.45,1.23-1.5,4.56c-.7,2.22-1.43,4.55-2.16,7a6.15,6.15,0,0,1-1.23,2.83,2.19,2.19,0,0,1-1.55.84c-.6,0-1.74-1-3.45-3.12a7.88,7.88,0,0,0-6.33-3.11A7,7,0,0,0,161.53,58a15.42,15.42,0,0,0-2.16,8.06V79.49c.22,1,.4,1.87.55,2.72s1.3,1.88,3.45,3.06,3.22,2.41,3.22,3.67a3.1,3.1,0,0,1-1.28,2.55,7,7,0,0,1-4.28,1H140.81a5.64,5.64,0,0,1-2.94-.83,2.63,2.63,0,0,1-1.39-2.39,4.26,4.26,0,0,1,2.33-3.67q5.12-3,5.11-7.44Z"/><path class="cls-1" d="M214.17,68.81a38.31,38.31,0,0,1-5.47,1.9,2.33,2.33,0,0,1-2.48-2.92,3.35,3.35,0,0,1,2.19-2.29l5.23-1.89q7.5-3.34,7.5-5,0-4.23-4.11-8.23c-2.75-2.66-5.52-4-8.34-4a7.5,7.5,0,0,0-6.5,3A12.81,12.81,0,0,0,200,57.05a22.72,22.72,0,0,0,.75,6,35.35,35.35,0,0,0,6.07,14.09,15,15,0,0,0,4.62,4.57,18,18,0,0,0,19.55.45l9.12-6c1.4,0,2.11.78,2.11,2.33a3.11,3.11,0,0,1-.39,1.5,12.78,12.78,0,0,1-1,1.5,27.24,27.24,0,0,1-11.77,8.67,40.72,40.72,0,0,1-15.34,3q-12.66,0-20.66-7-8.56-7.44-8.56-19.89a24.14,24.14,0,0,1,8.95-19.11,30.73,30.73,0,0,1,20.61-7.66,24.51,24.51,0,0,1,14.38,4.38A27.16,27.16,0,0,1,238,55.83a7.39,7.39,0,0,0,.39,1.22,2.88,2.88,0,0,1,.28.89q0,1.34-8.44,4.67C225,64.61,219.42,66.81,214.17,68.81Z"/><path class="cls-1" d="M39.44,68.81A38.31,38.31,0,0,1,34,70.71a2.33,2.33,0,0,1-2.48-2.92,3.37,3.37,0,0,1,2.2-2.29l5.22-1.89q7.5-3.34,7.5-5,0-4.23-4.11-8.23t-8.33-4a7.49,7.49,0,0,0-6.5,3,12.75,12.75,0,0,0-2.17,7.67,22.79,22.79,0,0,0,.76,6c.13.53.85,6.5,6.06,14.09a15.12,15.12,0,0,0,4.62,4.57A19.11,19.11,0,0,0,47,84.83a19.1,19.1,0,0,0,9.33-2.67l9.11-6c1.4,0,2.11.78,2.11,2.33a3.11,3.11,0,0,1-.39,1.5,12.65,12.65,0,0,1-.94,1.5,27.28,27.28,0,0,1-11.78,8.67,40.64,40.64,0,0,1-15.33,3q-12.67,0-20.67-7Q9.86,78.72,9.86,66.27A24.16,24.16,0,0,1,18.8,47.16,30.73,30.73,0,0,1,39.41,39.5,24.54,24.54,0,0,1,53.8,43.88a27.3,27.3,0,0,1,9.5,11.95,5.88,5.88,0,0,0,.39,1.22,3.06,3.06,0,0,1,.27.89q0,1.34-8.44,4.67C50.26,64.61,44.7,66.81,39.44,68.81Z"/><path class="cls-1" d="M265.94,73.49v3.45a18.24,18.24,0,0,0,.62,5.55,7.76,7.76,0,0,0,3.27,3.56q.9.56,1.89,1.11a2.41,2.41,0,0,1,1.22,1.89q0,3.44-3.66,3.44H248.06a5.22,5.22,0,0,1-3-.83,2.93,2.93,0,0,1-1.22-2.61c0-1.12,1.12-2.39,3.38-3.84s3.39-3.87,3.39-7.28V35.48q0-5.11-3.55-6t-3.56-3.22A3,3,0,0,1,244.55,24q1-.95,10.06-5.72t9.45-4.78a1.59,1.59,0,0,1,1.33.84,3,3,0,0,1,.55,1.72V73.49Z"/><path class="cls-1" d="M349.93,87.33a26.42,26.42,0,0,1-8.44,4.61,33.85,33.85,0,0,1-9.94,1.66q-8.44,0-13.67-4-5.78-4.44-5.78-12.66,0-9.22,11.78-13.45a58.5,58.5,0,0,1,19.78-3Q341,53.56,340,52.24a8.94,8.94,0,0,0-7.78-3.74A16.3,16.3,0,0,0,325.55,50c-2.37,1.23-4.71,2.43-7,3.59-1.56,0-2.33-.55-2.33-1.66,0-3.82,2.73-6.9,8.22-9.25a33.75,33.75,0,0,1,13.44-2.87q8.89,0,13.89,5,4,4,7.11,13.33l6.55,19.56a14,14,0,0,0,2.23,4.33c1.33,1.78,2.62,2.66,3.88,2.66a10.29,10.29,0,0,0,3.34-.66q1.11.45,1.11,2.7a5.77,5.77,0,0,1-3.56,5.39,15.13,15.13,0,0,1-6.89,1.46c-4.14,0-7.34-.77-9.33-2.6a23.62,23.62,0,0,1-6.72-11.47c0-.59-.8-2.3-.94-3s-.34-1.51-.56-2.33c-.82-3.26-1.55-5.26-2.22-6-1.11-1.18-3.19-1.78-6.22-1.78a12.32,12.32,0,0,0-7.61,2.56,8,8,0,0,0-3.39,6.66,9,9,0,0,0,3.33,7.11,11.2,11.2,0,0,0,7.56,2.89A12.5,12.5,0,0,0,346,83.87a3.33,3.33,0,0,1,3.15-.3A2.33,2.33,0,0,1,349.93,87.33Z"/><path class="cls-1" d="M310.69,84.62c0-1.11-.65-2.06-2.31-1.69-2.11,1-3.68,2.76-6.24,1.08a15.27,15.27,0,0,1-2.51-2.59,87.91,87.91,0,0,1-6.15-10.93q-3.35-6.76-7.34-16.33,0-3,6.56-5.66t6.55-4.23a4.26,4.26,0,0,0-.83-2.5,2.59,2.59,0,0,0-2.18-1.16H276.6a3.8,3.8,0,0,0-2.45.89A2.71,2.71,0,0,0,273,43.72c0,.89.73,1.74,2.17,2.55s2.17,1.67,2.17,2.56c0,1.63-1.11,3.55-3.34,5.78-1.77,1.63-3.52,3.22-5.22,4.77,0,0-2.87,4,4.22,6.22,1.77.56,4.6,4.49,8.22,13.45a49.84,49.84,0,0,0,5.46,10.63v0l.06.06c1.21,1.6,2.33,2.49,3.38,2.69A15.23,15.23,0,0,0,297.49,94c4.36,0,8-1.34,10.26-3.47A8,8,0,0,0,310.69,84.62Z"/><path class="cls-2" d="M161.36,118.22h-1.87V106h3.95a3.5,3.5,0,0,1,3.77,3.53,3.58,3.58,0,0,1-3.8,3.72h-2Zm1.74-6.56a2,2,0,1,0,0-4h-1.75v4Z"/><path class="cls-2" d="M176.46,116.57v1.65h-6.31V106h6.24v1.65H172v3.52h4v1.64h-4v3.75Z"/><path class="cls-2" d="M181.75,118.22V107.66h-3.16V106h8.18v1.65h-3.16v10.56Z"/><path class="cls-2" d="M206.53,113.51c-.31,3-2.68,5-6,5a6.37,6.37,0,0,1-.16-12.73c3.06,0,5.09,1.7,5.45,4.17l-1.75.74a3.48,3.48,0,0,0-3.76-3.21c-2.59,0-4.28,2-4.28,4.62a4.49,4.49,0,0,0,4.57,4.71,3.83,3.83,0,0,0,4.14-3.83Z"/><path class="cls-2" d="M221.47,112.11a6.32,6.32,0,1,1-6.32-6.36A6.29,6.29,0,0,1,221.47,112.11Zm-10.73,0a4.41,4.41,0,1,0,4.41-4.66A4.4,4.4,0,0,0,210.74,112.11Z"/></svg>